<svg fill="none" height="17" viewBox="0 0 18 17" width="18" xmlns="http://www.w3.org/2000/svg"><path d="m10.3125 1.27344 6.875 6.5625c.1953.19531.3125.42968.3125.70312 0 .23438-.1172.46875-.3125.66406l-6.875 6.56248c-.35156.3516-.97656.3516-1.32812-.039-.35157-.3516-.35157-.9766.03906-1.3282l5.19536-4.92184h-13.2813c-.546875 0-.9375-.42968-.9375-.9375 0-.54687.390625-.9375.9375-.9375h13.2813l-5.19536-4.96094c-.39063-.35156-.39063-.97656-.03906-1.32812.35156-.390625.9375-.390625 1.32812-.03906z" fill="#1e1e1e"/></svg>