<svg fill="none" height="17" viewBox="0 0 18 17" width="18" xmlns="http://www.w3.org/2000/svg"><path d="m17.4609 8.5c0 .54688-.4297.97656-.9375.97656h-13.28121l5.19531 4.92184c.39062.3516.39062.9766.03906 1.3282-.35156.3906-.9375.3906-1.32812.039l-6.875002-6.56248c-.195313-.19531-.273438-.42968-.273438-.70312 0-.23438.078125-.46875.273438-.66406l6.875002-6.5625c.39062-.351565.97656-.351565 1.32812.03906.35156.35156.35156.97656-.03906 1.32812l-5.19531 4.92188h13.28121c.5469 0 .9375.42969.9375.9375z" fill="#1e1e1e"/></svg>