<svg fill="none" height="19" viewBox="0 0 22 19" width="22" xmlns="http://www.w3.org/2000/svg"><path d="m19.0469 1.96094c-.9375-.82032-2.1094-1.21094-3.2813-1.21094-1.4453 0-2.9297.625-4.0234 1.71875l-.7422.82031-.7812-.82031c-1.0938-1.09375-2.57818-1.71875-4.02349-1.71875-1.17187 0-2.34375.39062-3.28125 1.21094-2.460935 2.10937-2.578122 5.85937-.39062 8.12496l7.57816 7.8125c.2343.2344.5468.3516.8593.3516.3516 0 .6641-.1172.8985-.3516l7.5781-7.8125c2.1875-2.26559 2.0703-6.01559-.3906-8.12496zm-.9766 6.83594-7.0703 7.30472-7.10938-7.30472c-1.25-1.32813-1.5625-3.86719.23438-5.39063 1.5625-1.36719 3.71094-.70313 4.72656.39063l2.14844 2.1875 2.1094-2.1875c1.0156-1.05469 3.164-1.75782 4.7265-.39063 1.7969 1.52344 1.5235 4.0625.2344 5.39063z" fill="#1e1e1e"/></svg>