<svg fill="none" height="19" viewBox="0 0 18 19" width="18" xmlns="http://www.w3.org/2000/svg"><path d="m13.75 10.75c-1.1328 0-2.1484.5078-2.8516 1.3281l-3.51559-1.7578c.07813-.2734.11719-.54686.11719-.8203 0-.23438-.03906-.50781-.11719-.78125l3.51559-1.75781c.7032.78125 1.7188 1.28906 2.8516 1.28906 2.0703 0 3.75-1.64062 3.75-3.75 0-2.07031-1.6797-3.75-3.75-3.75-2.1094 0-3.75 1.67969-3.75 3.75 0 .27344 0 .54688.0781.82031l-3.5156 1.75781c-.70312-.82031-1.71875-1.32812-2.8125-1.32812-2.10938 0-3.75 1.67969-3.75 3.75 0 2.1094 1.64062 3.75 3.75 3.75 1.09375 0 2.10938-.4688 2.8125-1.2891l3.5156 1.7579c-.0781.2734-.0781.5468-.0781.7812 0 2.1094 1.6406 3.75 3.75 3.75 2.0703 0 3.75-1.6406 3.75-3.75 0-2.0703-1.6797-3.75-3.75-3.75zm0-8.125c1.0156 0 1.875.85938 1.875 1.875 0 1.05469-.8594 1.875-1.875 1.875-1.0547 0-1.875-.82031-1.875-1.875 0-1.01562.8203-1.875 1.875-1.875zm-10 8.75c-1.05469 0-1.875-.8203-1.875-1.875 0-1.01562.82031-1.875 1.875-1.875 1.01562 0 1.875.85938 1.875 1.875 0 1.0547-.85938 1.875-1.875 1.875zm10 5c-1.0547 0-1.875-.8203-1.875-1.875 0-1.0156.8203-1.875 1.875-1.875 1.0156 0 1.875.8594 1.875 1.875 0 1.0547-.8594 1.875-1.875 1.875z" fill="#1e1e1e"/></svg>