<svg fill="none" height="21" viewBox="0 0 23 21" width="23" xmlns="http://www.w3.org/2000/svg"><path d="m6.83594 16.75c-1.05469 0-1.83594.8594-1.83594 1.875 0 1.0547.82031 1.875 1.83594 1.875.97656 0 1.83594-.8203 1.83594-1.875 0-1.0156-.78126-1.875-1.83594-1.875zm11.24996 0c-1.0547 0-1.8359.8594-1.8359 1.875 0 1.0547.8203 1.875 1.8359 1.875.9766 0 1.836-.8203 1.836-1.875 0-1.0156-.7813-1.875-1.836-1.875zm4.1407-14.49219c-.2344-.3125-.586-.50781-1.0157-.50781h-16.48434l-.07812-.46875c-.07813-.429688-.46875-.78125-.89844-.78125h-2.851562c-.507813 0-.898438.429688-.898438.9375 0 .54688.390625.9375.898438.9375h2.031252l2.34375 12.3828c.11718.4297.50781.7422.97656.7422h12.8125c.5078 0 .9375-.3906.9375-.8984 0-.5469-.4297-.9766-.9375-.9766h-12.07031l-.35157-1.875h12.46098c.5468 0 1.0156-.3516 1.1718-.8984l2.1485-7.46098c.1172-.39062.039-.82031-.1953-1.13281zm-3.5938 7.61719h-12.34374l-1.17187-6.25h15.27341z" fill="#fff"/></svg>