<svg fill="none" height="40" viewBox="0 0 150 40" width="150" xmlns="http://www.w3.org/2000/svg"><g fill="#fff"><path d="m0 39.4677v-38.93538h9.47399v31.29278h16.30671v7.6426z"/><path d="m66.1552 20c0 4.2839-.8294 7.9151-2.4881 10.8935-1.6587 2.9785-3.9044 5.2408-6.7371 6.7871-2.8198 1.5463-5.9842 2.3194-9.4931 2.3194-3.5216 0-6.6924-.7795-9.5122-2.3384-2.8199-1.5589-5.0592-3.8213-6.718-6.7871-1.646-2.9784-2.4689-6.6033-2.4689-10.8745 0-4.2839.8229-7.9151 2.4689-10.89354 1.6588-2.97845 3.8981-5.24081 6.718-6.78707 2.8198-1.546259 5.9906-2.31939 9.5122-2.31939 3.5089 0 6.6733.773131 9.4931 2.31939 2.8327 1.54626 5.0784 3.80862 6.7371 6.78707 1.6587 2.97844 2.4881 6.60964 2.4881 10.89354zm-9.6845 0c0-2.5349-.3637-4.6768-1.0909-6.4259-.7146-1.749-1.7481-3.0735-3.1006-3.97334-1.3398-.89987-2.9539-1.34981-4.8423-1.34981-1.8756 0-3.4897.44994-4.8422 1.34981-1.3526.89984-2.3925 2.22434-3.1198 3.97334-.7145 1.7491-1.0718 3.891-1.0718 6.4259s.3573 4.6768 1.0718 6.4259c.7273 1.749 1.7672 3.0735 3.1198 3.9733 1.3525.8999 2.9666 1.3498 4.8422 1.3498 1.8884 0 3.5025-.4499 4.8423-1.3498 1.3525-.8998 2.386-2.2243 3.1006-3.9733.7272-1.7491 1.0909-3.891 1.0909-6.4259z"/><path d="m97.4098 13.2509c-.2169-.7984-.5359-1.5018-.957-2.1102-.421-.6211-.9378-1.14704-1.5503-1.57796-.6124-.43093-1.3142-.75412-2.1053-.96958-.7911-.22814-1.6587-.34221-2.6029-.34221-1.9012 0-3.5472.45627-4.938 1.36882-1.378.91253-2.4435 2.24333-3.1963 3.99243-.7528 1.7363-1.1292 3.8466-1.1292 6.3308 0 2.4968.3637 4.6261 1.091 6.3878.7272 1.7617 1.7799 3.1052 3.1579 4.0304 1.3781.9252 3.0496 1.3878 5.0146 1.3878 1.7353 0 3.2026-.2788 4.402-.8365 1.2122-.5703 2.1309-1.3751 2.7561-2.4144s.9378-2.2624.9378-3.6692l1.7608.2091h-9.5314v-6.8631h16.9004v5.1521c0 3.4854-.747 6.4702-2.24 8.9544-1.48 2.4841-3.521 4.3916-6.1242 5.7224-2.5902 1.3308-5.5696 1.9962-8.9381 1.9962-3.7386 0-7.0241-.8048-9.8568-2.4145-2.8326-1.6096-5.04-3.9036-6.6222-6.8821-1.5822-2.9911-2.3733-6.5399-2.3733-10.6464 0-3.1939.4785-6.0266 1.4355-8.4981.9569-2.48412 2.2903-4.58805 4.0001-6.31175 1.7226-1.7237 3.713-3.02915 5.9715-3.91635 2.2712-.887201 4.7147-1.3308 7.3304-1.3308 2.2712 0 4.3829.323194 6.3351.969583 1.965.646387 3.7 1.558937 5.206 2.737647 1.518 1.1787 2.75 2.57921 3.694 4.20152.944 1.6223 1.531 3.40305 1.761 5.34215z"/><path d="m150 20c0 4.2839-.829 7.9151-2.488 10.8935-1.659 2.9785-3.905 5.2408-6.737 6.7871-2.82 1.5463-5.984 2.3194-9.493 2.3194-3.522 0-6.693-.7795-9.513-2.3384-2.819-1.5589-5.059-3.8213-6.717-6.7871-1.646-2.9784-2.469-6.6033-2.469-10.8745 0-4.2839.823-7.9151 2.469-10.89354 1.658-2.97845 3.898-5.24081 6.717-6.78707 2.82-1.546259 5.991-2.31939 9.513-2.31939 3.509 0 6.673.773131 9.493 2.31939 2.832 1.54626 5.078 3.80862 6.737 6.78707 1.659 2.97844 2.488 6.60964 2.488 10.89354zm-9.685 0c0-2.5349-.363-4.6768-1.09-6.4259-.715-1.749-1.749-3.0735-3.101-3.97334-1.34-.89987-2.954-1.34981-4.842-1.34981-1.876 0-3.49.44994-4.843 1.34981-1.352.89984-2.392 2.22434-3.119 3.97334-.715 1.7491-1.072 3.891-1.072 6.4259s.357 4.6768 1.072 6.4259c.727 1.749 1.767 3.0735 3.119 3.9733 1.353.8999 2.967 1.3498 4.843 1.3498 1.888 0 3.502-.4499 4.842-1.3498 1.352-.8998 2.386-2.2243 3.101-3.9733.727-1.7491 1.09-3.891 1.09-6.4259z"/></g></svg>