<svg fill="none" height="21" viewBox="0 0 18 21" width="18" xmlns="http://www.w3.org/2000/svg"><path d="m10.625 12.375h-3.75c-3.82812 0-6.875 3.0859-6.875 6.875 0 .7031.546875 1.25 1.25 1.25h15c.6641 0 1.25-.5469 1.25-1.25 0-3.7891-3.0859-6.875-6.875-6.875zm-8.75 6.25c.3125-2.4609 2.42188-4.375 5-4.375h3.75c2.5391 0 4.6484 1.9141 4.9609 4.375zm6.875-8.125c2.7344 0 5-2.22656 5-5 0-2.73438-2.2656-5-5-5-2.77344 0-5 2.26562-5 5 0 2.77344 2.22656 5 5 5zm0-8.125c1.7188 0 3.125 1.40625 3.125 3.125 0 1.75781-1.4062 3.125-3.125 3.125-1.75781 0-3.125-1.36719-3.125-3.125 0-1.71875 1.36719-3.125 3.125-3.125z" fill="#fff"/></svg>